<svg xmlns="http://www.w3.org/2000/svg" viewBox="0 0 575 547.5" height="547.5" width="575"><path d="M236.56 476.56c-2.63-1.07-4.8-2.6-7.24-5.14-4.7-4.84-6.2-8.85-6.2-16.5v-5.66l-1.86 1.57c-1.03.87-3.43 2.16-5.34 2.87-3.43 1.3-4.14 1.3-72.17 1.3-68.6 0-68.7 0-72.32-1.33-5.02-1.86-10.75-7.6-12.6-12.63-1.35-3.63-1.35-3.83-1.18-52.2l.16-48.53 1.65-3.43c2.1-4.4 6.2-8.48 10.55-10.55l3.44-1.63 42.54-.32 42.53-.32 10.18-9.37c5.6-5.17 10.36-9.46 10.6-9.55.25-.1 5.36 4.2 11.36 9.53l10.92 9.7H207c7.68 0 11.54 1.5 16.5 6.5 2.8 2.78 4.2 4.78 5.17 7.42 1.3 3.56 1.33 4.36 1.48 50.63l.15 47 .17-41.67.16-41.68 1.6-1.26c3.14-2.46 8.07-3.82 13.9-3.82h5.43l10.3-6.33c5.7-3.48 10.64-6.45 11.03-6.6.37-.14 5.5 2.7 11.42 6.33l10.73 6.6 40.76-.15c36.47-.13 37.68-.17 11.54-.32l-29.2-.17V313.7l-6.26-9.35c-3.44-5.14-6.25-9.57-6.25-9.85 0-.28 2.76-3.45 6.15-7.05 5.6-5.94 6.18-6.8 6.47-9.4.77-6.8 5.85-13.7 12.33-16.75l3.48-1.63 69.06-.33 69.07-.32-57.36-.15-57.34-.15v-59.2l-5.3-9.55c-2.93-5.25-5.32-9.65-5.32-9.8 0-.13 2.38-3.26 5.3-6.94 4.12-5.2 5.3-7.14 5.3-8.68.02-1.1.16-2.35.34-2.8.26-.7-4.55-.8-27.55-.67l-27.88.18-10.1 7.7c-5.57 4.22-10.46 7.88-10.9 8.13-.46.3-4.77-2.6-11.24-7.52l-10.47-8-6.57-.33c-5.25-.28-7.26-.67-10-1.94-4.43-2.04-8.5-6.1-10.56-10.5l-1.63-3.5V47.2l1.6-3.45c2.1-4.43 6.14-8.5 10.54-10.55l3.48-1.64H387.2l3.43 1.62c4.43 2.07 8.48 6.12 10.55 10.52l1.63 3.5.18 48.57.17 48.58-13.3.18c-7.3.1 17.15.25 54.35.33 67.34.14 67.64.15 71.25 1.47 5 1.85 10.74 7.6 12.6 12.6 1.3 3.58 1.33 4.15 1.33 51.38 0 47.24-.02 47.82-1.34 51.4-1.86 5.04-7.58 10.74-12.67 12.62-3.35 1.23-4.67 1.34-14.37 1.18l-10.7-.2v98.14l-1.6 3.43c-2.08 4.44-6.13 8.5-10.53 10.56l-3.48 1.63-39.22.17-39.2.17-.2-11.42c-.1-6.28-.24 9.74-.3 35.6-.15 46.27-.18 47.05-1.5 50.62-.97 2.64-2.35 4.64-5.15 7.43-2.8 2.8-4.8 4.18-7.43 5.16-3.62 1.32-3.7 1.32-72.5 1.3h-68.9l-3.74-1.54zm-10.94-29.37c.8-.87 1.33-1.57 1.16-1.57-.17 0-.97.7-1.78 1.56-.8.85-1.33 1.55-1.16 1.55.18 0 .98-.7 1.78-1.56zm50.16-22.86c3.16-.87 4.22-3.07 4.22-8.7 0-5.55-1.05-7.77-4.14-8.8-2.9-.95-8.74-.38-10.28 1-2.93 2.67-3.3 12.08-.57 14.98 2 2.13 6.37 2.75 10.78 1.52zm37.97-.43c2.8-1.4 3.98-4.64 3.55-9.7-.5-5.9-2.62-7.95-8.18-7.95-3.85 0-6.52 1.1-7.58 3.16-1.13 2.2-1.22 9.87-.15 12.22 1.46 3.23 8.03 4.44 12.35 2.3zm36.4.44c1.6-.44 2.65-1.24 3.3-2.46 1.06-2.1 1.26-9.66.3-12.18-1.44-3.8-11.25-4.7-14.17-1.32-2.53 2.94-2.73 10.86-.35 14.05 1.83 2.45 6.22 3.22 10.93 1.9zm-240-23.75c3.16-.88 4.23-3.08 4.23-8.72 0-5.54-1.05-7.76-4.15-8.78-2.9-.96-8.73-.4-10.27 1-2.94 2.66-3.3 12.07-.58 14.97 2 2.13 6.36 2.75 10.78 1.52zm37.98-.44c2.8-1.4 3.98-4.65 3.54-9.7-.5-5.9-2.6-7.96-8.18-7.96-3.86 0-6.52 1.1-7.58 3.16-1.13 2.2-1.23 9.86-.15 12.2 1.47 3.24 8.04 4.45 12.36 2.3zm36.4.43c1.58-.45 2.65-1.25 3.28-2.47 1.1-2.1 1.3-9.66.33-12.18-1.45-3.8-11.26-4.7-14.18-1.32-2.53 2.94-2.73 10.86-.35 14.05 1.83 2.45 6.23 3.22 10.93 1.9zm207.97-43.94c0-.12-.63-.75-1.4-1.4l-1.4-1.2 1.18 1.4c1.12 1.33 1.62 1.7 1.62 1.2zm-3.13-3.1c0-.13-.77-.9-1.7-1.73l-1.73-1.52 1.5 1.73c1.43 1.6 1.94 2 1.94 1.52zm-18.6-17.97c3.17-.88 4.23-3.08 4.23-8.73 0-5.53-1.05-7.75-4.14-8.77-2.9-.96-8.74-.4-10.28 1-2.93 2.66-3.3 12.07-.57 14.97 2 2.13 6.37 2.75 10.78 1.52zm37.98-.44c2.8-1.4 3.98-4.65 3.55-9.7-.5-5.9-2.62-7.96-8.18-7.96-3.85 0-6.52 1.1-7.58 3.16-1.13 2.2-1.22 9.86-.15 12.2 1.46 3.24 8.03 4.45 12.35 2.3zm36.4.43c1.6-.45 2.65-1.25 3.3-2.47 1.06-2.1 1.26-9.66.3-12.18-1.44-3.8-11.25-4.7-14.17-1.32-2.53 2.94-2.73 10.86-.35 14.05 1.83 2.45 6.22 3.22 10.93 1.9zm42.35-67.1c0-.12-.5-.6-1.1-1.08-1-.78-1-.76-.23.24.82 1.04 1.33 1.37 1.33.85zm-4.38-4.36c0-.13-.5-.62-1.1-1.1-.98-.77-1-.75-.22.24.8 1.04 1.33 1.37 1.33.86zm-73.6-42.3c3.17-.87 4.23-3.07 4.23-8.7 0-5.55-1.05-7.77-4.14-8.8-2.9-.95-8.73-.38-10.27 1-2.93 2.67-3.3 12.08-.57 14.98 2 2.13 6.36 2.75 10.77 1.52zm37.98-.43c2.8-1.4 3.98-4.64 3.55-9.7-.5-5.9-2.62-7.95-8.18-7.95-3.85 0-6.52 1.1-7.58 3.16-1.14 2.2-1.23 9.87-.16 12.22 1.47 3.23 8.04 4.44 12.36 2.3zm36.4.44c1.6-.44 2.65-1.24 3.3-2.46 1.06-2.1 1.26-9.66.3-12.18-1.44-3.8-11.25-4.7-14.17-1.32-2.53 2.94-2.73 10.86-.35 14.05 1.83 2.45 6.22 3.22 10.93 1.9zM362.5 152.8c.8-.85 1.33-1.55 1.16-1.55-.18 0-.98.7-1.8 1.56-.8.87-1.3 1.57-1.14 1.57.17 0 .97-.7 1.78-1.56zm3.44-3.43c.62-.68 1-1.25.82-1.25-.18 0-.83.57-1.45 1.25-.6.7-.98 1.25-.8 1.25.17 0 .82-.56 1.44-1.25zm-82.66-41.9c3.16-.88 4.22-3.07 4.22-8.72 0-5.53-1.05-7.76-4.14-8.78-2.9-.96-8.74-.4-10.28 1-2.93 2.66-3.3 12.08-.57 14.98 2 2.13 6.37 2.74 10.78 1.52zm37.97-.44c2.8-1.4 3.98-4.64 3.55-9.7-.5-5.9-2.62-7.95-8.18-7.95-3.85 0-6.52 1.1-7.58 3.16-1.13 2.18-1.22 9.85-.15 12.2 1.46 3.23 8.03 4.45 12.35 2.3zm36.4.44c1.6-.44 2.65-1.24 3.3-2.47 1.06-2.08 1.26-9.66.3-12.18-1.44-3.8-11.25-4.7-14.17-1.3-2.53 2.93-2.73 10.85-.35 14.04 1.83 2.45 6.22 3.2 10.93 1.9zM223.62 293.7c-4.72-.7-9.24-2.7-11.6-5.15-2.38-2.48-4.86-7.42-5.4-10.8l-.43-2.56 6.14-.4c9.2-.62 10.2-.57 10.2.54 0 1.9 2.55 5.9 4.35 6.83 1 .53 3.28.95 5.04.95 2.7 0 3.48-.28 5.02-1.82 2.2-2.2 2.33-4.33.36-6.45-1.38-1.5-4.18-2.55-11.34-4.28-4.95-1.2-11.05-4.18-13.58-6.65-7.34-7.15-4.3-19.3 5.87-23.56 1.22-.5 4.6-1.22 7.5-1.58 9.28-1.16 18.28.77 22.63 4.85 2.16 2.03 4.75 7.27 4.76 9.65 0 1.68-.08 1.72-3.6 1.72-1.97 0-5.4.18-7.65.4l-4.06.38-1.13-2.6c-1.34-3.02-3.66-4.43-7.3-4.43-1.88 0-2.96.4-4.1 1.53-3.28 3.3-1.5 4.8 8.9 7.5 8.97 2.33 12.58 3.82 15.95 6.6 6.8 5.6 6.54 17.12-.5 23.87-5.35 5.1-14.82 7.1-26 5.45zm-114.85-27.45v-26.88h22.33l4 15.6c2.2 8.58 4.16 15.4 4.36 15.16.2-.25 1.84-6.2 3.63-13.26l3.88-15.15.6-2.34h21.84v53.75h-13.75l-.05-19.22-.05-19.2-4.54 17.5c-2.5 9.6-4.74 18.27-4.98 19.23l-.43 1.74-6.38-.18-6.37-.2-4.7-18.43-4.7-18.43-.18 18.6-.16 18.58h-14.35v-26.87zm72.5 0v-26.88h16.85v53.76h-16.89v-26.88zm81.88 0v-26.88h16.13c18.23 0 20.66.4 24.94 4.06 3.34 2.87 4.86 6.77 4.86 12.5 0 5.58-1.5 9.56-4.7 12.45-4 3.62-6.2 4.27-15.45 4.6l-8.27.3v19.84h-17.5v-26.87zm26.83-5.3c2-1.03 2.55-2.08 2.52-4.9-.04-3.78-2.5-5.42-8.06-5.42h-3.8v11.25h3.8c2.08 0 4.56-.4 5.54-.92zM52.5 188.72v-26.9l16.4.2 16.4.2 3.96 1.8c8.57 3.96 12.66 12.06 12.67 25.08 0 3.44-.3 7.62-.66 9.27-1.95 8.7-8.05 14.72-16.77 16.57-1.9.4-9.42.7-17.66.7H52.5v-26.9zm27.48 13.33c3.33-1.68 4.6-4.48 4.9-10.77.6-12.53-2.55-16.88-12.22-16.88h-3.28v28.75h4.2c2.8 0 4.98-.38 6.4-1.1zm30.64-13.28v-26.88h45v11.89h-27.5v8.1h25.62v11.26h-25.6v9.98l14.2.17 14.22.17.18 6.1.18 6.1h-46.3v-26.9zm54.38-.04v-26.9l16.4.2 16.4.2 3.96 1.8c8.57 3.96 12.66 12.06 12.67 25.08 0 3.44-.3 7.62-.66 9.27-1.95 8.7-8.05 14.72-16.77 16.57-1.9.4-9.42.7-17.66.7H165v-26.9zm27.48 13.33c3.33-1.68 4.6-4.48 4.9-10.77.6-12.53-2.55-16.88-12.22-16.88h-3.3v28.75h4.23c2.77 0 4.96-.38 6.38-1.1zm31.42-13.12l.16-26.7 8.6-.2 8.6-.16v53.8h-17.53l.16-26.73z" fill="#9dd3ef"/><path d="M239.33 477.28c-9.65-2.63-15.44-10.23-16.06-21.1l-.32-5.5 2.06-2.35c1.14-1.28 2.8-3.9 3.7-5.8l1.6-3.47.32-43.43.32-43.43 4.2-2.13c3.75-1.92 4.83-2.16 10.6-2.42l6.45-.3 10.26-6.28c5.66-3.45 10.58-6.27 10.94-6.26.37.02 5.16 2.8 10.66 6.2l10 6.2 42.52.3 42.5.3 4.15 2.05c4.8 2.37 8.12 5.76 10.44 10.7l1.64 3.5v97.54l-2.02 4.13c-2.38 4.8-5.76 8.12-10.7 10.44l-3.52 1.64-68.44.13c-52.9.1-69.08-.05-71.3-.65zm38.8-54.05c3.34-3.35 3.3-11.9-.08-15.27-1.77-1.78-2-1.83-6.8-1.62-6.95.32-7.75 1.17-8 8.52-.27 8.4 1.23 10.1 8.83 10.13 3.86 0 4.44-.17 6.04-1.77zm36.2.85c2.24-1.15 3.17-3.76 3.17-8.9 0-4.6-1.2-7.45-3.5-8.33-.87-.33-3.4-.6-5.65-.6-3.64 0-4.26.2-5.84 1.77-1.2 1.2-1.9 2.7-2.2 4.7-.68 4.5.15 8.45 2.2 10.5 1.6 1.6 2.2 1.78 5.92 1.78 2.42 0 4.88-.38 5.92-.92zm37.76-.36c2.02-1.6 3.14-5.55 2.72-9.66-.65-6.28-2.33-7.8-8.56-7.8-7.03 0-8.77 1.87-8.75 9.5.02 7.46 1.7 9.2 8.82 9.23 3.24 0 4.5-.28 5.77-1.28zM73.7 454.15c-6.4-1.74-11.3-5.96-14.26-12.25l-1.63-3.46v-97.51l1.66-3.52c2.32-4.94 5.62-8.32 10.44-10.7l4.13-2.03 42.23-.2 42.22-.17 10.5-9.64 10.52-9.65 10.72 9.57 10.72 9.58 6.38.3c5.56.27 6.9.57 10.4 2.28 4.7 2.32 8.02 5.74 10.32 10.64l1.65 3.52v97.52l-2.05 4.14c-2.37 4.82-5.76 8.12-10.7 10.44l-3.5 1.65-68.45.1c-52.92.1-69.1-.05-71.3-.65zm38.8-54.67c3.35-3.35 3.3-11.9-.07-15.27-1.78-1.77-2-1.82-6.8-1.6-6.96.3-7.76 1.16-8 8.5-.27 8.4 1.23 10.12 8.82 10.14 3.86 0 4.44-.16 6.04-1.76zm36.2.85c2.25-1.15 3.18-3.76 3.18-8.9 0-4.6-1.2-7.45-3.5-8.33-.88-.33-3.42-.6-5.66-.6-3.63 0-4.25.2-5.84 1.77-3.3 3.32-3.3 11.9 0 15.2 1.6 1.6 2.2 1.78 5.92 1.78 2.42 0 4.88-.38 5.9-.92zm37.76-.36c2.04-1.6 3.15-5.55 2.73-9.66-.66-6.27-2.33-7.8-8.56-7.8-7.04 0-8.77 1.88-8.76 9.5.02 7.47 1.7 9.22 8.82 9.24 3.23 0 4.5-.27 5.76-1.27zm209.67-23.56l-.2-13-2.03-4.13c-2.37-4.8-5.76-8.12-10.7-10.44l-3.5-1.64-30.8-.2-30.78-.16v-33.8l-6.32-9.33-6.32-9.3 6.25-6.56c5.67-5.93 6.3-6.82 6.68-9.53 1.05-7.23 5.5-13.32 12.12-16.58l4.14-2.03H474.1l4.13 2.02c4.8 2.38 8.12 5.76 10.44 10.7l1.64 3.52v96.87l-1.63 3.53c-2.32 4.94-5.63 8.32-10.44 10.7l-4.14 2.03-38.9.18-38.88.18-.2-13zm-23-41.92c3.34-3.35 3.3-11.9-.08-15.27-1.77-1.77-2-1.82-6.8-1.6-6.95.3-7.75 1.16-8 8.5-.27 8.4 1.23 10.12 8.83 10.14 3.86 0 4.44-.16 6.04-1.76zm36.2.85c2.24-1.15 3.17-3.76 3.17-8.9 0-4.6-1.2-7.45-3.5-8.33-.87-.33-3.4-.6-5.65-.6-3.64 0-4.26.2-5.84 1.77-1.2 1.2-1.9 2.7-2.2 4.7-.68 4.5.15 8.45 2.2 10.5 1.6 1.6 2.2 1.78 5.92 1.78 2.42 0 4.88-.38 5.92-.92zm37.76-.36c2.02-1.6 3.14-5.55 2.72-9.66-.65-6.27-2.33-7.8-8.56-7.8-7.03 0-8.77 1.88-8.75 9.5.02 7.47 1.7 9.22 8.82 9.24 3.24 0 4.5-.27 5.77-1.27zm-226.33-42.15c-4.76-1.33-6.56-2.42-9.4-5.65-2.5-2.82-4.5-7.3-4.5-10.04 0-1.63 1.5-1.97 9.9-2.26l5.2-.18.84 2.4c1.66 4.76 5.58 7.14 10.44 6.32 3.38-.57 5.5-2.7 5.5-5.52 0-3.08-2.46-4.93-8.85-6.6-15.75-4.15-20.45-7.67-21.03-15.75-.37-5 1.05-8.57 4.65-11.74 3.7-3.25 7.37-4.45 14.92-4.86 13.65-.73 20.9 2.8 23.77 11.57.6 1.82.94 3.44.77 3.6-.17.2-3.7.5-7.86.7l-7.53.4-.4-1.6c-.88-3.52-5.3-5.7-9.64-4.8-2.42.53-3.78 2-3.78 4.12 0 2.03 1.9 3.02 9.38 4.88 9.57 2.4 13.53 4.04 16.95 7.1 5.37 4.8 6.32 12.45 2.4 19.3-2.15 3.77-4.87 6-9.47 7.82-4.38 1.72-17.27 2.2-22.23.8zm-111.4-26.58v-26.9l10.73.18 10.73.17 4.16 16.2c2.28 8.92 4.3 15.95 4.48 15.62.18-.32 2.12-7.68 4.33-16.36l4-15.78h21.58v53.74h-13.12V273c0-11.1-.24-19.86-.53-19.53-.3.32-2.75 9.38-5.47 20.12l-4.94 19.52h-6.08c-3.35 0-6.1-.1-6.1-.25 0-.77-10.03-39.36-10.3-39.63-.17-.18-.32 8.72-.32 19.78v20.1h-13.12v-26.9zm71.88 0V239.4h16.25v53.75h-16.25v-26.88zm82.5-.05v-26.95l16.4.28c18.2.3 20.43.7 24.18 4.37 3.53 3.45 4.1 5.14 4.1 12.04 0 7-.6 8.72-4.42 12.43-3.33 3.24-6.82 4.24-16.03 4.6l-7.97.3v19.85h-16.25V266.2zm27.38-5.8c1.23-1.22 1.65-2.28 1.65-4.1 0-4.22-3.22-6.3-9.8-6.3H280v12.66l4.74-.3c4.07-.26 4.97-.54 6.4-1.96zm198.32 11.83c-2-4.73-5.46-8.47-10.2-11.03l-3.94-2.14-58.5-.17-58.54-.17-.37-1.4c-.2-.77-.4-14.17-.4-29.8v-28.38l-4.48-8.17c-2.47-4.5-4.85-8.74-5.3-9.43-.73-1.15-.3-1.9 4.4-7.86 4.42-5.62 5.27-7.07 5.63-9.7.6-4.34 3.7-10.34 6.7-13.07 1.43-1.28 4.17-3.06 6.1-3.97l3.5-1.65h138.8l4.13 2.05c4.8 2.37 8.12 5.76 10.44 10.7l1.64 3.5v97.52l-1.64 3.52c-2.32 4.93-5.63 8.32-10.44 10.7-4.13 2.03-4.16 2.03-15.1 2.23l-10.94.2-1.5-3.47zm-77.58-51.5c3.35-3.35 3.3-11.9-.07-15.27-1.77-1.78-2-1.83-6.8-1.62-6.95.32-7.75 1.17-8 8.52-.27 8.4 1.23 10.1 8.83 10.13 3.86 0 4.44-.17 6.04-1.77zm36.22.85c2.22-1.15 3.15-3.76 3.15-8.9 0-4.6-1.2-7.45-3.5-8.33-.87-.33-3.4-.6-5.65-.6-3.64 0-4.26.2-5.84 1.77-2.06 2.06-2.9 6-2.2 10.52.28 1.98 1 3.48 2.2 4.7 1.6 1.58 2.2 1.76 5.9 1.76 2.43 0 4.9-.38 5.93-.92zm37.74-.36c2.03-1.6 3.15-5.55 2.73-9.66-.65-6.28-2.33-7.8-8.56-7.8-7.02 0-8.76 1.87-8.74 9.5 0 7.46 1.7 9.22 8.8 9.23 3.25 0 4.5-.28 5.78-1.28zM52.5 188.7v-26.93l16.1.25c19.3.3 20.33.56 26.14 6.37 5.54 5.52 6.82 9.53 6.82 21.3 0 8.48-.05 8.86-1.93 12.8-2.08 4.36-5.86 8.7-9.03 10.32-4.08 2.12-9.87 2.78-24.2 2.8H52.5V188.7zm28.2 13.34c1-.6 2.4-2.3 3.13-3.76 1.14-2.36 1.27-3.6 1.08-10.02-.17-5.96-.45-7.73-1.48-9.5-1.8-3.08-4.7-4.38-9.83-4.38h-4.22v28.75h4.74c3.38 0 5.28-.32 6.58-1.1zm30.55-13.3v-26.87h44.38v11.23l-13.9.17-13.92.17-.17 4.22-.2 4.22h26.36l-.18 5.46-.18 5.47-13 .18-13 .17.2 5.14.17 5.14 14.23.17 14.22.17v11.86h-45v-26.88zm53.75-.04v-26.93l16.1.25c19.3.3 20.33.56 26.14 6.37 5.54 5.52 6.82 9.53 6.82 21.3 0 8.48-.05 8.86-1.93 12.8-2.08 4.36-5.86 8.7-9.03 10.32-4.08 2.12-9.87 2.78-24.2 2.8H165V188.7zm28.2 13.34c1-.6 2.4-2.3 3.13-3.76 1.14-2.36 1.27-3.6 1.08-10.02-.17-5.96-.45-7.73-1.48-9.5-1.8-3.08-4.7-4.38-9.83-4.38h-4.22v28.74h4.74c3.38 0 5.28-.3 6.58-1.08zm31.18-13.3v-26.87h16.25v53.76h-16.26v-26.88zm45.87-19.34l-10.6-7.97-6.37-.3c-5.53-.27-6.9-.57-10.38-2.3-4.7-2.3-8.02-5.73-10.32-10.63l-1.64-3.5V47.8l1.64-3.5c2.32-4.94 5.63-8.33 10.44-10.7l4.14-2.04h139.4l3.52 1.65c4.94 2.33 8.32 5.63 10.7 10.45l2.03 4.13.2 46.27c.1 25.44.02 47.16-.18 48.26l-.36 2-14.53.2-14.53.2-4.16 2.04c-4.92 2.43-8.54 6.23-10.56 11.1l-1.4 3.4H302.1l-10.62 8.07-10.63 8.08-10.62-7.98zm15.37-63.05c3.35-3.35 3.3-11.9-.07-15.27-1.77-1.77-2-1.83-6.8-1.6-6.95.3-7.75 1.16-8 8.5-.27 8.4 1.23 10.12 8.83 10.14 3.86 0 4.44-.16 6.04-1.77zm36.22.86c2.23-1.15 3.16-3.76 3.16-8.9 0-4.6-1.2-7.45-3.5-8.33-.87-.33-3.4-.6-5.65-.6-3.64 0-4.26.2-5.84 1.78-2.05 2.06-2.88 6-2.2 10.5.3 2 1 3.5 2.2 4.7 1.6 1.6 2.2 1.77 5.92 1.77 2.42 0 4.88-.38 5.92-.9zm37.75-.36c2.02-1.6 3.14-5.54 2.72-9.65-.65-6.3-2.33-7.83-8.56-7.83-7.03 0-8.77 1.9-8.75 9.5.02 7.47 1.7 9.23 8.82 9.25 3.24 0 4.5-.27 5.77-1.28z" fill="#249fdd"/><path d="M52.5 188.75v-26.88l13.9.02c15.3 0 20.56.7 24.66 3.3 7.62 4.8 11.22 13.64 10.64 26.05-.4 8.3-1.9 12.5-6.1 17.1-5.54 6.06-10.54 7.26-30.13 7.27H52.5v-26.87zm28.14 13.43c3.3-1.7 4.57-5.28 4.58-12.87 0-5.75-.2-7-1.5-9.67-1.86-3.73-4.2-5.02-10.13-5.63l-4.22-.42v30.35l4.7-.4c2.6-.2 5.54-.82 6.56-1.35zm30.6-13.43v-26.88h44.4v11.26H127.5v8.71l12.97.17 12.97.17.18 5.13.18 5.14-13 .17-13 .17-.17 5.48-.18 5.47h28.8v11.86h-45v-26.87zm53.76 0v-26.88l13.9.02c15.3 0 20.56.7 24.66 3.3 7.62 4.8 11.22 13.64 10.64 26.05-.4 8.3-1.9 12.5-6.1 17.1-5.54 6.06-10.54 7.26-30.13 7.27H165v-26.87zm28.14 13.43c3.3-1.7 4.57-5.28 4.58-12.87 0-5.75-.2-7-1.5-9.67-1.86-3.73-4.2-5.02-10.13-5.63l-4.22-.42v30.35l4.7-.4c2.6-.2 5.54-.82 6.56-1.35zm31.24-13.43v-26.88h16.25v53.76h-16.26v-26.88z" fill="#020202"/></svg>