<svg xmlns="http://www.w3.org/2000/svg" viewBox="0 0 900 900"><path d="M540.428 864.975c-89.82-6.83-165.3-92.44-157.54-182.8.3-44.9 21.94-88.4 54.04-119.17l14.36 38.39c-51.9 59.15-38.67 161.2 28.53 203.4 63 45.35 160.7 23.14 197.23-45.6 28.9-49.1 22.72-115.5-14.48-158.62 7.03-23.3 16.97-51.6 34.58-15.5 56.6 71.57 42.65 185.6-29.65 241.5-35.07 28.98-81.8 43.06-127.06 38.42zm-482.1-214.18c39.83-107.76 79.8-215.5 119.7-323.24 21.42.22 42.92-1.36 64.26.6-40.86 109.96-80.14 221.2-122.76 330.1-21.34 1.58-42.8.48-64.2.8l3-8.25zm196.25 6.25c40.4-110.1 81.32-220 122-330l91.2.03c29.8 76 59.07 152.22 89.5 227.96 30.44-75.74 59.7-151.96 89.5-227.96 21.82 0 43.63 0 65.45-.02-41 110.47-81.57 221.1-122.73 331.5h-66.5l-101.21-266.36c-33.55 88.73-66 177.9-99 266.83-22.4-1-47.53 2.36-68.2-1.98zm291.42-249.8c-6.54-20.08-13.48-40.1-10.77-61.53 0-56.48.03-112.96.05-169.44l-177.79-126.72c133.2-.45 266.4-.45 399.58 0-59.9 42.34-119.83 84.67-179.75 127-.4 65.87.75 131.94-.6 197.68-6.4 22.67-12.36 45.5-19.32 68-4.5-11.4-7.67-23.32-11.38-35z" fill="#bdbdbd"/><path d="M113.458 502.795c31.83-85.93 59.5-160.63 61.47-166l3.58-9.74h31.9c17.53 0 31.88.3 31.88.65 0 .37-27.56 75.07-61.24 166l-61.24 165.36h-64.22l57.86-156.27zm141.05 155.03c.25-.7 27.86-75.4 61.37-166l60.9-164.75 45.4.24 45.38.24 44.6 114.23c24.56 62.81 44.86 114.21 45.13 114.21.28 0 20.57-51.4 45.1-114.23l44.62-114.24 32.26-.26c30.4-.25 32.23-.16 31.77 1.5-.56 2.02-98.84 268.13-112.82 305.5l-9.27 24.76h-32.72c-25.26 0-32.83-.28-33.2-1.25-23.7-63.33-101.23-265.58-101.65-265.18-.33.32-22.72 60.3-49.75 133.26l-49.14 132.7-34.22.27c-27.2.2-34.1 0-33.76-1zm291.76-250.55l-10.48-33.72-.3-99-.3-99-88.47-63-88.48-63 99.53-.25c54.73-.13 144.3-.13 199.04 0l99.5.26-89.25 63.1-89.27 63.12-.5 98.9-.5 98.88-9.36 33c-5.16 18.15-9.66 33.33-10.02 33.72-.36.4-5.38-14.45-11.14-33z" fill="#445367"/><path d="M56.508 657.825c.25-.7 27.86-75.4 61.37-166l60.9-164.73 31.2-.02c17.15 0 31.36.32 31.58.73.2.42-27.14 75-60.78 165.76l-61.17 165-31.78.27c-25.27.2-31.68 0-31.33-1zm200.32-5.52l61.4-165.74 58.87-159 44.94-.26 44.93-.26 44.92 115c24.7 63.23 45.13 114.97 45.4 114.97.28 0 20.7-51.73 45.4-114.96l44.92-114.98h31.95c30 0 31.9.1 31.27 1.75-.37.97-26.1 70.6-57.2 154.76l-60.68 164.21-4.16 11.25h-32.5l-32.5-.02-50.92-134c-28-73.72-51.24-133.67-51.62-133.25-.38.43-22.87 60.74-50 134.03l-49.3 133.26h-67.62l2.5-6.75z"/></svg>