<svg xmlns="http://www.w3.org/2000/svg" viewBox="0 0 592.5 562.5" height="562.5" width="592.5"><path d="M247.7 486.4c-4-6.8-202.4-349-203.2-350.6l-.8-1.4H191l51.5 88.8c28.3 48.8 51.6 88.5 52 88.2 0-.2 23.3-40.2 51.4-88.7l51-88.3h36l7.2-6.7 7.2-6.8-2-.5c-1-.2-17.6-2-36.8-3.7-19.2-1.8-34.8-3.5-34.8-3.7 0 0 17.8-2 39.7-4 22-2.2 40-4 40-4.2.2-.2-12.6-21-28.5-46.5-22.5-36-28.2-45.4-25.8-43l35 37c30.4 32.8 31.7 34 32 32.3.4-1 2-17.5 4-36.6 1.7-19.2 3.4-35 3.5-35 .2 0 2 18 4.2 40 2 21.7 4 39.7 4 40 .2 0 20.7-12.6 45.6-28.2L573.8 36c.5-.3-1 1-3 3.2l-37.3 35c-32.6 30.4-33.3 31-31.4 31.5 1.2.2 17.7 2 37 3.7 19 2 34.8 3.5 34.8 3.7 0 .3-17 2-38 4l-40 4-2 .6 5 7.8c42.8 68.5 52.3 83.8 51 82.5l-35-37.2c-33-35.2-33.2-35.4-33.6-33.4-.3 1-2 17.7-3.8 37-1.8 19-3.5 34.7-3.6 34.7-.2 0-2-17.8-4.2-39.6-2.2-22-4-40-4.2-40 0-.2-2.8 1.3-6 3.3l-5.8 3.6L352.4 315 250.7 490.2c-.3.3-1.6-1.4-3-3.8z" fill="#fdf1cb"/><path d="M147.5 313.3l-103.3-178c-.4-.8 11.7-1 73-1H191l51.4 89 51.7 89.2 51.7-89 51.5-89h35.3c0 .3-49.4 46.8-57.7 54.5-1.7 1.4-1.7 1.6-.4 1 1.2-1 66.5-41.7 76-47.8 1.6-1 2.7-1.4 2.6-1.2L352.2 315 251 489.5c-.7 1-16.5-26-103.5-176.2zm322.2-141.8L466 133l1.8-1.5c3.6-2.8 4-2.7 8.6 2.3 2.8 3 4.2 5.2 4.2 6.2 0 3-6.5 70-7 70 0 0-2-17.3-4-38.5zm22-53.4c-1-1.3-1.7-2.7-1.6-3l4.8-4.6c2.8-2.7 5-4.2 6-4.2 3 0 69.8 6.6 69.8 7 0 .2-73.8 7.5-76.3 7.5-.6 0-1.8-1.2-2.7-2.6zm-82.5-1.3c-17.8-1.8-32.3-3.4-32.3-3.6 0-.2 73.7-7.5 76.4-7.4.8 0 2 1 3 2.8l1.6 2.7-5 4.6c-4.7 4.3-4.8 4.4-8 4.3-2 0-18-1.6-35.8-3.3zm62.2-24.4c-3-3-4.5-5-4.5-6-.2-3.2 6.4-70 6.7-70 .4 0 7.6 73.8 7.6 76.3 0 1-4 4.3-5 4.3-.2 0-2.4-2.2-5-4.7z" fill="#fed865"/><path d="M147.5 313.3l-103.3-178c-.4-.8 11.7-1 73-1H191l51.4 89 51.7 89.2 51.7-89 51.5-89h35.3c0 .3-49.4 46.8-57.7 54.5-1.7 1.4-1.7 1.6-.4 1 1.2-1 66.5-41.7 76-47.8 1.6-1 2.7-1.4 2.6-1.2L352.2 315 251 489.5c-.7 1-16.5-26-103.5-176.2z" fill="#6f2f9f"/></svg>