<svg xmlns="http://www.w3.org/2000/svg" width="3606" height="3046">
    <g fill="none" fill-rule="evenodd" transform="translate(354 362)">
        <path fill="#30586E" d="M1207.445 396.5h288.98v1608.403h-288.98z"/>
        <ellipse cx="2461.933" cy="1193.982" fill="#DAE2E6" rx="172.492" ry="172.489"/>
        <path stroke="#30586E" stroke-width="273.816" d="M2922.278 698.229c-265.399-253.721-686.284-250.07-947.284 10.93-264.672 264.672-264.704 693.759-.07 958.392 264.632 264.633 693.719 264.6 958.39-.071"/>
        <path stroke="#AAB0B3" stroke-width="118.272" d="M2427.286 2113.843c255.375-.002 491.75-73.574 676.377-258.2"/>
        <path stroke="#E61B58" stroke-width="118.272" d="M2874.249 375.546c-281.273-151.343-610.456-136.648-873.915 12.787"/>
        <g stroke="#30586E" stroke-width="279.552">
            <path d="M877.344 1563.88c30.06-173.812-68.286-286.667-295.038-338.566C209.544 1139.998 31.594 993.51 48.455 785.851"/>
            <path d="M802.97 809.493c0-164.993-169.63-298.747-378.88-298.747-209.251 0-378.883 133.754-378.883 298.747M0 1540.239c0 192.294 197.1 348.179 440.235 348.179 243.135 0 440.234-155.885 440.234-348.18"/>
        </g>
    </g>
</svg>
