<svg xmlns="http://www.w3.org/2000/svg" viewBox="0 0 630 562.5" height="562.5" width="630"><path d="M187.7 344l-123-212.4 19-.3 19.4-.4-19.3-33.4L64.4 64c0-.2 8.7-.2 19.4 0h19.4l51.5 88.8c30 51.7 51.8 88.7 52.3 88.6.4 0 12.6-8.5 27.2-18.7l26.4-18.4 9.6 1c22 2.2 29 2.5 55.7 2.5 28.6 0 35.4-.4 45.8-2.8 9-2 12.5-5 9.7-8.2-6-6.7-34-14-72.2-19-6.6-.8-12-1.6-12.2-1.8 0-.2 39-35.7 45-40.8 1-.8 2-.6 9.7 1.7 44 13 73.5 33.8 80 55.8 2.3 8.2.6 18-4.4 25.5-3 4.6-10.6 11.6-16.6 15.6-15.5 10-39.7 17.7-68 21.3-26 3.3-59.7 2.8-88.3-1.3-10-1.4-30-5.6-38.7-8-4.3-1.2-8-2-8-2-.2 0 103.2 178.4 103.6 178.4 0 0 47-80.6 104-179L519.4 64h19.4c10.7-.2 19.4-.2 19.4 0L539 97.6 519.4 131l19.3.3 19.2.3-123 212.2C367 460.4 311.5 556 311.3 556c-.3.2-56-95.3-123.7-212zM277 169.4c-14.5-2-49.7-10.7-67.3-16.4-33-10.6-55.6-22.4-69-36-7.4-7.4-10.3-12.2-11.3-18.6-1.6-9.6 4.3-19.7 16.2-27.8 18-12 52.6-21.5 93.8-25.2 36.4-3.4 85.3-3 121 1.3 3 .3 3 .3 3.8-1.8 3.7-10.2 17.6-13.3 26.2-6 2.5 2 5.2 7.4 5.2 10.2 0 2.3-1 2 12.2 4.3 12 2 24 4.6 37 7.8 10.6 2.7 24.3 6.6 25.7 7.4 1 .6 3 0-51.4 17.6-35.6 11.6-37 12-40.6 11.6C286 88 199.8 86.7 181 94.7c-12 5.2 15 14.3 66.8 22.5 16 2.5 47.7 6.5 63.4 8 6 .6 11.5 1.2 12 1.5 1 .3-2.5 4-18.6 18.8l-23 21.3c-2.4 2-3.6 2.7-4.7 2.5z" fill="#bdbdbd"/><path d="M206.5 309L84.2 97.7c-10-17.2-18.5-32-19-32.6l-1-1.5H103l51.3 88.6 52 89.3c.4.6 7-3.6 27.5-18l27-19 11 1c21.2 2.2 34 2.8 56.3 2.8 24 0 35-1 45-3.4 19.8-5 8.8-13.8-26.7-21.3-11-2.3-28-5-40-6.6l-9.2-1 3.3-3c2-1.5 12.3-11 23-20.7l19.8-17.7 4.4 1.2c40.6 11.3 71.5 30.5 81.7 50.8 4 8 4.5 17.5 1.4 25.3-7.4 18-33 32.7-70.4 40.2-31.5 6.3-70.4 6.8-107.5 1.2-13.3-2-38.5-7.6-44.6-10-1-.4-1 .2.8 3.3C218.3 263.4 311 423 311.2 423c.2 0 47.2-80.8 104.4-179.6l104-179.6h38.5l-1 1.4-19 32.6c-90.7 157-226.6 391-227 391-.2 0-47.3-81-104.7-180zM269 167.7c-30.7-6-56.8-13.2-79-22-46.2-18.2-67.6-40-58.5-59.8 2-4.4 8.5-11.3 14.2-15C180 48 260.7 38 350 46c6 .5 11.5 1 12.3 1.2 1 .2 1.5 0 2-2 1.3-3.6 6.2-8 10-9.2 4.3-1.2 6-1.2 10 0 4.6 1.3 9 5.7 10.3 10.3.6 1.8 1 3.7 1 4.3 0 .8 2.4 1.4 12 3 19.6 3.5 41.3 8.6 58 13.7 2.8.8 5 1.7 5 1.8-.3.2-20.2 6.8-44.5 14.7L382 98l-5-.6c-20.5-2.3-58.6-5.3-87.3-7-19.6-1-77.5-1-87.8 0-10 1.2-19 3-21.6 4.4-7.5 4.4 3.6 10 32.8 16.4 21.6 4.7 56.5 10 89.3 13.5l18.5 2 3.2.5-22.8 21c-12.5 11.7-23.2 21-23.8 21-.6 0-4.5-.6-8.7-1.4z" fill="#bf0101"/><path d="M206.5 309L84.2 97.7c-10-17.2-18.5-32-19-32.6l-1-1.5H103l104 179.7L311.3 423c.2 0 47.2-80.8 104.4-179.6l104-179.6h38.5l-1 1.4-19 32.6c-90.7 157-226.6 391-227 391-.2 0-47.3-81-104.7-180zM375 67c-9-3-13.8-12-11-20.8 2-6.2 9-11.2 15.4-11.2 3.8 0 8.2 2 11.3 5 7.8 8 5.8 20.6-4 25.8-2.8 1.4-9 2-11.7 1.2z" fill="#010101"/></svg>