<svg xmlns="http://www.w3.org/2000/svg" viewBox="0 0 610 346.25" height="346.3" width="610"><path d="M224 302c-13-1.7-25.6-6.7-36-14-7.4-5.2-17-15.4-22.2-23.3L103 167C44.5 75.2 38.6 66.2 14.3 31L1 11.5l76-.2h76.6l4.2 82.4 4 82.4c0 .2 1.6-2 3.4-4.6 12.7-18.8 31-31 53.5-35.8 7.4-1.5 24-1.5 31.3 0 18 3.8 34 13 45.7 25.7l3 3.2 6.4-6.3c9.7-9.3 19.8-15.6 31.6-19.5 10-3.5 15.2-4.3 26.8-4.3 8 0 12 .3 16 1.2 17.6 3.7 31.8 11.5 44 24 6.5 6.7 10 11.5 14.2 19.6l3 5.6 1-1.6c.7-1.2 2.5-18.3 8.7-86.2L458 12c0-.6 15.4-.7 74.5-.7 41 0 74.4 0 74.4.3s-8 11.7-17.7 25.5c-62.4 89.4-150 215.5-152 219-9.8 18-25 31.5-43.3 39-3.2 1.4-8.8 3.3-12.5 4.2-6 1.5-8 1.7-17.4 1.7-11.5 0-15.8-.7-25-3.6-12.4-4-23.8-11-33.7-20.6l-6.3-6-4.8 5c-11 12.2-26.5 21-43 25-5 1-22.4 2-27 1.3zm9.7-39.7l3-5.2 10-17.3c2-3 4-6.8 4.8-8 3.6-6.5 5.7-9.8 6-9.8.4 0 1.5 1.5 2.5 3.5s3.2 5.7 4.7 8.3l4.3 7.6c1 1.6 1.8 3 2 3 .7 0 2.8-4 2.3-4.3-.3 0-1-1.3-1.7-2.5-.6-1.2-2.4-4.2-4-6.6-1.4-2.6-2.6-4.7-2.6-5l-4-7c-2.3-3.6-4-6.7-4-7l-3-5c-3.4-5.8-4-7-4-7.3 0-.2 5.8-.3 12.8-.3 7.7 0 12.8-.3 12.8-.6s-.3-1.3-.7-2.2l-.8-1.6h-24c-13.2 0-24-.2-24-.4 0-.5 6-11 8-14l3-5.3 1.6-3-2-.3c-2.4-.3-2.4-.3-5.4 5.2-1.4 2.4-3.4 6-4.7 8l-13.7 24c-1 1.8-2 3.3-2.4 3.3-.3 0-1.4-1.6-2.5-3.6-1-2-3-5.8-4.6-8.4-1.5-2.6-3.4-6-4-7.4l-1.6-2.7-1.3 1.8-1.4 1.7 1.4 2.5c.7 1.4 2.5 4.6 4 7 1.5 2.4 2.7 4.6 2.7 4.7 0 .2 1.7 3 3.5 6 2 3 4.3 7.2 5.4 9.2 1 2 2.4 4.5 3 5.3 1 1.5 3 5.6 3 6 0 .2-5.6.3-12.7.3-7 0-12.8.2-12.8.3 0 .2.4 1.2 1 2.2l1 2H218c13.2 0 24 0 24 .3 0 .4-5.8 10.5-8 14-2.5 4-4 6.5-4.3 8-.4 1.2-.2 1.3 1.4 1.3 1 0 2.3-.3 2.7-.7zm129.3 0c.4-.5 1.8-2.8 3-5.2 2.6-4.2 4.2-7 10.2-17.3l4.7-8c3.5-6.5 5.6-9.8 6-9.8.3 0 1.3 1.5 2.4 3.5 1 2 3.2 5.7 4.7 8.3 1.6 2.5 3.4 5.8 4.2 7.2l1.4 2.7 1.2-1.6c1.6-2 1.2-3-2.7-9.5l-3.5-6.2c-.2-.4-2-3.8-4.3-7.4-2.2-3.7-4-6.7-4-7l-2.8-5c-3.4-5.8-4-7-4-7.3 0-.2 5.7-.3 12.8-.3 7.7 0 12.8-.3 12.8-.6s-.3-1.3-.7-2.2l-.8-1.6h-24c-13 0-24-.2-24-.4 0-.5 6-11 8-14 .8-1.2 2-3.6 3-5.3l1.7-3-2-.3c-2.4-.3-2.4-.3-5.4 5.2l-4.7 8-13.7 24c-1 1.8-2 3.3-2.3 3.3-.4 0-1.5-1.6-2.5-3.6s-3.2-5.8-4.7-8.4l-4-7.3c-1-1.5-1.8-2.7-2-2.7-.3 0-1 .7-1.5 1.5-1 1.5-1 1.8.4 4.4l4 7c1.6 2.5 2.8 4.7 2.8 4.8 0 .2 1.5 3 3.4 6l5.3 9.2c1 2 2.5 4.5 3 5.3 1 1.5 3.2 5.6 3.2 6 0 .2-5.8.3-12.8.3-13.8 0-14 0-12.2 3.2.6 1 1.6 1.2 24.7 1.2 13.2 0 24 0 24 .4s-5.6 10.5-7.8 14c-2.5 4-4 6.5-4.3 8-.3 1.2 0 1.3 1.5 1.3 1 0 2.2-.3 2.5-.7z" fill="#a4a4a4"/><path d="M223.4 301.8c-17.4-2.4-33-10.3-46-23.3-5.6-5.5-7.8-8.4-13.8-17.7-4-6-33.2-51.7-65-101.3C62 102.8 33.3 58.7 21 40.5 10 25 1.2 11.8 1.2 11.6c0 0 34.4-.3 76.3-.3 75 0 76.3 0 76.3 1.3 0 2.6 8 172.4 8.3 174.7.3 2 3.7 7.7 16.4 27.5l16 25 23.4.3 23.4.3-3.8 6.6-5.4 9.3c-3.7 6.7-3.3 6.4-6.4 6-6.6-.8-18.8-7.2-23.7-12.4l-2-2.2 1.2 2c2.5 3.7 8.7 9 14 11.4 12.5 6.2 26.8 5.8 40-1 5.8-3 15-12 17.8-17.5 1.3-2.4 1.7-3.8 1.2-3.6-1 .5-1.6-.2-4.2-5-1-2-3.5-6.2-5.4-9.3l-4-7c-.3-1-1.2-2.3-1.8-3.3-.6-1-2-3-3-5s-2.8-5-3.8-6.7l-2-3.3h26l1.4 3.2c1.8 4.3 2.8 11.6 2.4 17l-.4 4.2H292c7 0 15.8-.2 19.4-.5l6.5-.4-.4-3.3c-.3-4.4 1-13.3 2.3-16.7l2.2-5.7c1-3 1-3 2.2-2 .6.7 2 3 3 5l5.5 9.4 4 7c.2 1 1 2.3 1.7 3.2.6.8 2 3 3 5s2.8 5 3.8 6.7l2 3.3h-13c-7.4 0-13.2 0-13.2.3l1.8 4.3c5.5 12 15 20.5 27.3 24.6 4.4 1.4 6 1.6 13 1.6 7.2 0 9-.2 13.3-1.6 2.7-1 6.7-2.7 9-4 5.2-3.2 10.4-7.8 9.7-9-.2-.4-.6-.5-.8 0-1 1.4-10.2 7-14 8.2-2 .8-4.2 1.7-4.6 2-1 .5-11.5 2-12 1.6-.4-.4 2.3-5.8 6-11.7l4.7-8.2 5.6-9.6c2-3 4-6.8 4.8-8.3 1.8-3.4 1.7-3.6 9.3 10l3.4 5.8 2 3 1.3-1.7 1.5-2c0-.5-3.6-7.2-5-9.4l-3-5.3-7-12c-1.3-2-2.7-4.5-3.2-5.5l-3-5-2-3.4h26.2l1.3 3.2c3 7.4 3.2 19.5.3 27.6-.7 2.4-1.3 4.4-1.2 4.5.3.4 35.8-51.2 36.5-53 .4-1 4.2-40 8.4-86.2l7.7-84.2h74.2c41 0 74.3 0 74.3.3 0 .2-8 11.5-17.5 25l-114 163.7L434 260c-6.7 9.6-9.3 12.7-15 18.2-10 9.5-18.6 14.8-30 18.7-9.5 3-15.3 4-25.6 4-10.6 0-17-1.2-25.8-4.2-12.4-4.4-21-10-30.8-20l-7.3-7.3-3.6 4.4c-11.6 13.4-28.7 23.4-46.7 27-6 1-20.2 1.6-26 .8zm11-39c0-.6 3.6-7.2 6.2-11.6l4.7-8 5.6-9.8c1.8-3 4-6.8 4.7-8.3l1.4-2.7 1.3 1.5c.7.8 2 2.8 2.7 4.3.8 1.7 2.8 5 4.3 7.6l4 7 1.4 2.4-3.3 3.5c-4.6 4.8-11 9-17.6 11.5-6 2.2-15.4 4-15.4 2.8zm118.4-1c-11-3-20.7-9.6-26.6-18.2l-2.5-3.6h47l-2.3 4.2c-1.3 2.3-3.3 5.8-4.5 7.6l-2.7 4.4c-.2.6-1 2.2-2 3.6-1.5 3-2.5 3.2-6.5 2zm-161.6-28.5c-2.7-6.8-3.7-15.7-2.5-23.2.7-4.4 4.7-15.6 5.7-15.6.2 0 1.4 1.7 2.5 4 1 2 2.3 4.3 2.7 4.8l3.3 5.7 7 12c1.3 2 2.7 4.5 3.2 5.6l3 5 2 3.4h-26.4l-.6-1.7zm18-23.7l-7.3-12.4c-.8-1.4-2-3.6-3-5-1.7-3-1.5-3.4 2.6-7.5 7.6-7.6 21-13.4 30.7-13.4h2l-2.4 4.2-4.7 8-4.5 7.7c-1.2 2.3-3.7 6.6-5.6 9.7-2 3-3.7 6.2-4 7-.4.8-1 2-1.6 2.8-.8 1.2-1 1-2.4-1.2zm129.4 0l-7.3-12.4c-.8-1.4-2-3.6-3-5-1.6-3-1.4-3.4 2.6-7.5 7.5-7.6 21-13.4 30.7-13.4h2l-2.4 4.2-4.6 8c-1.3 2-3.3 5.5-4.5 7.7-1.2 2.3-3.8 6.6-5.7 9.7-1.8 3-3.7 6.2-4 7l-1.5 2.8c-1 1.2-1 1-2.4-1.2zM229 190.2l4.4-7.4 3.4-6c2.5-5 2.8-5 6-4.7 4 .7 12.7 4.3 17.2 7.5 5.8 4 10 8.3 13.4 14 .3.7-4.4 1-23 1h-23.6l2.3-4.3zm129.5 0l4.3-7.4 3.4-6c2.5-5 2.8-5 6-4.7 4 .6 12.6 4.3 17.2 7.4 5.4 3.7 10 8.5 13.3 14.2.4.6-4.4.8-23 .8h-23.5l2.3-4.2z" fill="#eb7b30"/><path d="M234.4 262.8c0-.6 3.6-7.2 6.2-11.6l4.7-8 5.6-9.8c1.8-3 4-6.8 4.7-8.3l1.4-2.7 1.3 1.5c.7.8 2 2.8 2.7 4.3.8 1.7 2.8 5 4.3 7.6l4 7 1.4 2.4-3.3 3.5c-4.6 4.8-11 9-17.6 11.5-6 2.2-15.4 4-15.4 2.8zm129.3 0c0-.6 3.7-7.2 6.3-11.6l4.7-8c1.2-2.3 3.7-6.7 5.6-9.8 2-3 4-6.8 4.8-8.3 1.8-3.5 1.4-4 9.8 11l3.6 6.2c1.8 3 1.5 3.6-2.4 7.3-4 4-11 8.3-15.4 10-2.2.7-4.3 1.5-4.7 1.8-1.3 1-12.2 2.2-12.2 1.5zm-140.6-1c-12-3.8-20.6-9.8-26.3-18l-2.3-3.5 12-.2h23.3l11.5.3-3.8 6.6-5.4 9.3c-3.3 6-3.4 6.2-5.4 6-1 0-2.6 0-3.5-.4zm129.8 0c-11-3-20.7-9.6-26.6-18.2l-2.5-3.6h47l-2.3 4.2c-1.3 2.3-3.3 5.8-4.5 7.6l-2.7 4.4c-.2.6-1 2.2-2 3.6-1.5 3-2.5 3.2-6.5 2zm47.8-25.7l-2.8-5-3.3-5.5c-3.5-6.2-4.4-7.7-7-12-1.3-2-2.7-4.7-3.2-5.7l-3-5-2-3.4h26.2l1.3 3.2c3.3 8 3.2 19.4-.2 29.2-2.7 7.7-3 8.2-3.5 8.2 0 0-1.3-1.8-2.4-4zm-128 2.6L270 234c-1-2-3.5-6.2-5.4-9.3l-4-7c-.3-1-1.2-2.3-1.8-3.3-.6-1-2-3-3-5s-2.8-5-3.8-6.7l-2-3.3h26l1.5 3.3c1.4 3.7 2.5 9.6 2.5 14.5 0 3.3-3 16-4.6 19.8-1 2.5-1.7 3-2.7 1.6zm-81.4-5.3c-2.7-6.8-3.7-15.7-2.5-23.2.7-4.4 4.7-15.6 5.7-15.6.2 0 1.4 1.7 2.5 4 1 2 2.3 4.3 2.7 4.8l3.3 5.7 7 12c1.3 2 2.7 4.5 3.2 5.6l3 5 2 3.4h-26.4l-.6-1.7zm129.5-.6c-.3-1.3-.8-4-1-5.8-.3-2-1-4-1.3-4.4-1.8-1.8-.7-14 2-20.7.8-2.4 2-5 2.2-6 .7-1.6.8-1.7 1.8-.6.6.7 2 3 3 5l5.5 9.3 4 7c.2 1 1 2.3 1.7 3.2.6.8 2 3 3 5s2.8 5 3.8 6.7l2 3.3h-26.2l-.6-2.3zm-111.5-23L202 197c-.8-1.4-2-3.6-3-5-1.7-3-1.5-3.4 2.6-7.5 7.6-7.6 21-13.4 30.7-13.4h2l-2.4 4.2-4.7 8-4.5 7.7c-1.2 2.3-3.7 6.6-5.6 9.7-2 3-3.7 6.2-4 7-.4.8-1 2-1.6 2.8-.8 1.2-1 1-2.4-1.2zm129.4 0l-7.3-12.5c-.8-1.4-2-3.6-3-5-1.6-3-1.4-3.4 2.6-7.5 7.5-7.6 21-13.4 30.7-13.4h2l-2.4 4.2-4.6 8c-1.3 2-3.3 5.5-4.5 7.7-1.2 2.3-3.8 6.6-5.7 9.7-1.8 3-3.7 6.2-4 7l-1.5 2.8c-1 1.2-1 1-2.4-1.2zM229 190l4.4-7.4 3.4-6c2.5-5 2.8-5 6-4.7 4 .7 12.7 4.3 17.2 7.5 5.8 4 10 8.3 13.4 14 .3.7-4.4 1-23 1h-23.6l2.3-4.3zm129.5 0l4.3-7.4 3.4-6c2.5-5 2.8-5 6-4.7 4 .6 12.6 4.3 17.2 7.4 5.4 3.7 10 8.5 13.3 14.2.4.6-4.4.8-23 .8h-23.5l2.3-4.2z" fill="#050505"/></svg>